<?xml version="1.0" encoding="UTF-8" standalone="no"?>
<svg
   xmlns:dc="http://purl.org/dc/elements/1.1/"
   xmlns:cc="http://creativecommons.org/ns#"
   xmlns:rdf="http://www.w3.org/1999/02/22-rdf-syntax-ns#"
   xmlns:svg="http://www.w3.org/2000/svg"
   xmlns="http://www.w3.org/2000/svg"
   version="1.1"
   id="Layer_1"
   x="0px"
   y="0px"
   viewBox="0 0 24 24"
   xml:space="preserve"
   width="24"
   height="24"><metadata
   id="metadata63"><rdf:RDF><cc:Work
       rdf:about=""><dc:format>image/svg+xml</dc:format><dc:type
         rdf:resource="http://purl.org/dc/dcmitype/StillImage" /><dc:title></dc:title></cc:Work></rdf:RDF></metadata><defs
   id="defs61" />
<g
   id="g26"
   transform="matrix(0.07407407,0,0,0.07407407,1.0000006,1.0000006)">
	<g
   id="g6">
		<g
   id="g4">
			<circle
   style="fill:#db4437;fill-opacity:1"
   cx="148.5"
   cy="148.5"
   r="148.5"
   id="circle2" />
		</g>
	</g>
	<path
   style="opacity:0.15;fill:#000000;fill-opacity:1"
   d="m 212.757,65.72 -67.211,136.057 c 2.998,4.695 4.812,10.252 5.076,16.143 0.09,2.004 -0.063,3.97 -0.428,5.878 0.444,1.931 0.719,3.922 0.81,5.954 0.724,16.175 -14.284,29.951 -29.951,29.951 -1.36,0 -2.688,-0.099 -3.987,-0.273 l -1.882,3.81 33.785,33.754 c 81.316,-0.252 147.238,-65.858 148.013,-147.05 z"
   id="path8" />
	<g
   id="g12">
		<path
   style="fill:#ecf0f1"
   d="M 222,110.265 C 222,97.307 218.642,81.389 212.757,65.72 H 84.243 C 78.358,81.389 75,97.308 75,110.265 c 0,38.202 29.147,69.587 66.414,73.153 v 67.691 h -21.257 c -3.913,0 -7.086,3.172 -7.086,7.086 0,3.913 3.172,7.086 7.086,7.086 h 21.257 14.171 21.257 c 3.913,0 7.086,-3.172 7.086,-7.086 0,-3.913 -3.172,-7.086 -7.086,-7.086 H 155.585 V 183.418 C 192.853,179.852 222,148.467 222,110.265 Z"
   id="path10" />
	</g>
	<g
   id="g16">
		<path
   style="fill:#dee1e2"
   d="m 222,110.265 c 0,-12.958 -3.358,-28.876 -9.243,-44.545 h -64.59 v 199.56 h 7.419 21.257 c 3.913,0 7.085,-3.172 7.085,-7.086 0,-3.914 -3.172,-7.086 -7.085,-7.086 H 155.586 V 183.417 C 192.853,179.852 222,148.467 222,110.265 Z"
   id="path14" />
	</g>
	<g
   id="g20">
		<path
   style="fill:#c53d32;fill-opacity:1"
   d="m 87.162,112.661 c 0,33.876 27.462,61.338 61.338,61.338 33.876,0 61.338,-27.462 61.338,-61.338 0,0 -122.676,0 -122.676,0 z"
   id="path18" />
	</g>
	<g
   id="g24">
		<path
   style="fill:#af362c;fill-opacity:1"
   d="m 148.167,112.661 v 61.33 c 0.112,10e-4 0.221,0.008 0.333,0.008 33.876,0 61.338,-27.462 61.338,-61.338 0,0 -61.671,0 -61.671,0 z"
   id="path22" />
	</g>
</g>
<g
   id="g28"
   transform="translate(0,-273)">
</g>
<g
   id="g30"
   transform="translate(0,-273)">
</g>
<g
   id="g32"
   transform="translate(0,-273)">
</g>
<g
   id="g34"
   transform="translate(0,-273)">
</g>
<g
   id="g36"
   transform="translate(0,-273)">
</g>
<g
   id="g38"
   transform="translate(0,-273)">
</g>
<g
   id="g40"
   transform="translate(0,-273)">
</g>
<g
   id="g42"
   transform="translate(0,-273)">
</g>
<g
   id="g44"
   transform="translate(0,-273)">
</g>
<g
   id="g46"
   transform="translate(0,-273)">
</g>
<g
   id="g48"
   transform="translate(0,-273)">
</g>
<g
   id="g50"
   transform="translate(0,-273)">
</g>
<g
   id="g52"
   transform="translate(0,-273)">
</g>
<g
   id="g54"
   transform="translate(0,-273)">
</g>
<g
   id="g56"
   transform="translate(0,-273)">
</g>
</svg>